<?xml version="1.0" encoding="utf-8"?>
<!-- Generator: Adobe Illustrator 18.1.1, SVG Export Plug-In . SVG Version: 6.00 Build 0)  -->
<svg version="1.1" id="Layer_1" xmlns="http://www.w3.org/2000/svg" xmlns:xlink="http://www.w3.org/1999/xlink" x="0px" y="0px"
	 viewBox="0 0 128 64" enable-background="new 0 0 128 64" xml:space="preserve">
<g>
	<path fill="#385A2A" d="M11.5,30.6c-2.8,0-5.2-0.6-7.2-1.8c-2.2-1.4-3.2-3.2-3.2-5.6v-16c0-0.5-0.1-1-0.4-1.4
		C0.6,5.6,0.5,5.5,0.3,5.4C0.2,5.2,0.1,5.2,0,5.1v-5h10.8v5c-0.3,0.1-0.6,0.4-0.7,0.7C10,5.8,10,6,10,6.2C9.9,6.4,9.9,6.6,9.9,6.8
		v0.4v15.2c0,0.6,0.2,1,0.6,1.4c0.4,0.4,0.9,0.6,1.4,0.6c0.5,0,0.9-0.2,1.3-0.6c0.3-0.4,0.5-0.8,0.5-1.3V7.2c0-0.5-0.1-0.9-0.4-1.3
		c-0.2-0.4-0.5-0.6-0.8-0.8v-5h10.5v5c-0.1,0.1-0.2,0.1-0.3,0.2c-0.2,0.1-0.3,0.3-0.4,0.4C22.3,5.8,22.2,6,22,6.3
		c-0.1,0.3-0.2,0.5-0.2,0.9V23c0,2.4-1.1,4.3-3.1,5.7C16.8,29.9,14.4,30.6,11.5,30.6"/>
	<path fill="#385A2A" d="M36.9,22.2V23c0,0.3,0,0.4,0.1,0.5c0.1,0.1,0.3,0.2,0.7,0.2h0.9c0.2,0,0.4-0.1,0.7-0.2
		c0.3-0.1,0.5-0.3,0.7-0.6c0.2-0.2,0.3-0.5,0.3-0.7c0.1-0.2,0.1-0.6,0.1-1v-5.6h7.8v14.3H26.4v-5c0.2-0.1,0.4-0.3,0.6-0.5
		c0.2-0.2,0.3-0.4,0.3-0.5c0.1-0.2,0.1-0.4,0.1-0.6V6.8c0-0.3,0-0.5-0.1-0.7c-0.1-0.2-0.2-0.4-0.4-0.7c-0.2-0.3-0.4-0.5-0.8-0.7V0.1
		h12v4.6c-0.3,0.2-0.5,0.4-0.7,0.7c-0.4,0.4-0.6,0.9-0.6,1.4V22.2z"/>
	<path fill="#385A2A" d="M65.3,23.2c0,0.4,0.1,0.8,0.4,1.1c0.3,0.3,0.6,0.5,1,0.5v5H55.4v-5c0.4,0,0.7-0.2,1-0.5
		c0.1-0.2,0.2-0.3,0.3-0.4c0.2-0.2,0.2-0.5,0.2-0.8V7.4V6.7c0-0.3,0-0.4-0.1-0.5c0,0-0.2-0.1-0.3-0.1h-0.3c-0.2,0-0.4,0-0.7,0.1
		c-0.2,0.1-0.4,0.2-0.5,0.4c-0.2,0.3-0.3,0.7-0.3,1v0.6v5.2h-6.3V0.1h25.3v13.3h-6.3V8.3V7.7c0-0.4-0.1-0.7-0.3-1
		c-0.1-0.1-0.2-0.3-0.5-0.4c-0.2-0.1-0.5-0.2-0.7-0.2h-0.3c-0.2,0-0.3,0-0.4,0.1c0,0.1-0.1,0.3-0.1,0.7v0.5V23.2z"/>
	<path fill="#385A2A" d="M99.4,19.8v3.4c0,0.4,0.1,0.8,0.3,1.1c0.2,0.3,0.4,0.5,0.6,0.6v5H90.1v-8.6c0-0.4,0-0.8-0.2-1.1
		c-0.1-0.3-0.3-0.6-0.6-1c-0.1-0.2-0.3-0.3-0.4-0.3c-0.2-0.1-0.4-0.2-0.7-0.2h-0.5c-0.5,0-0.8,0-0.8,0.1c-0.1,0.2-0.1,0.3-0.1,0.5v1
		v3c0,0.4,0.1,0.8,0.3,1.1c0.2,0.3,0.4,0.5,0.6,0.6v5h-11v-5c0.2-0.1,0.4-0.3,0.6-0.5c0.1-0.2,0.3-0.4,0.4-0.6
		c0.1-0.2,0.1-0.4,0.1-0.6V7.5c0-0.4,0-0.7-0.1-0.9c0-0.2-0.1-0.4-0.3-0.7c-0.2-0.3-0.4-0.5-0.7-0.6V0h15.7c2,0,3.7,0.8,5.1,2.3
		c1.4,1.5,2.2,3.3,2.2,5.2c0,1.8-0.2,3.2-0.5,4.2c-0.5,1.3-1.4,2.3-2.6,3c-0.1,0.1-0.2,0.2-0.2,0.4c0,0.2,0.1,0.3,0.2,0.4
		c1.1,0.6,1.8,1.2,2.1,1.6C99.1,17.7,99.4,18.6,99.4,19.8 M90.6,9.6c0-0.9-0.1-1.6-0.2-2.1c-0.2-0.8-0.7-1.2-1.3-1.2h-1.6
		c-0.2,0-0.4,0.1-0.5,0.3c-0.1,0.1-0.1,0.2-0.1,0.3v0.4v4.1c0,0.2,0,0.4,0,0.6c0,0.2,0.1,0.4,0.1,0.5c0.1,0.1,0.3,0.2,0.5,0.2h1.6
		c0.6,0,0.9-0.3,1.1-0.9C90.5,11.1,90.6,10.4,90.6,9.6"/>
	<path fill="#385A2A" d="M117.2,23c0-0.3-0.1-0.5-0.3-0.8c-0.1-0.1-0.2-0.1-0.2-0.2c-0.2-0.1-0.3-0.2-0.5-0.2h-3.1
		c-0.1,0-0.2,0.1-0.4,0.2c-0.1,0-0.1,0.1-0.2,0.2c-0.2,0.3-0.3,0.5-0.3,0.8v0.4c0,0.4,0.1,0.6,0.4,0.8c0.1,0.1,0.2,0.1,0.3,0.2
		c0.2,0.1,0.4,0.2,0.4,0.2v5.2h-10.2v-5.2c0.2-0.1,0.4-0.3,0.5-0.5l0.2-0.7L108.4,0H122l4.8,23c0,0.2,0.1,0.3,0.1,0.5
		c0,0.1,0.1,0.2,0.3,0.5c0.2,0.3,0.4,0.6,0.7,0.7v5.1h-11.7v-5.2c0.2,0,0.4-0.2,0.6-0.4c0.2-0.2,0.4-0.5,0.4-0.8V23z M114.5,9.4
		l-1.2,5.9c-0.1,0.5,0,0.9,0.3,1.1c0.2,0.2,0.6,0.3,1,0.3c0.2,0,0.4,0,0.6,0c0.3,0,0.4-0.1,0.5-0.2c0.2-0.3,0.3-0.7,0.3-1.1
		L114.5,9.4z"/>
	<path fill="#385A2A" d="M9.6,63.9c-2.5,0-4.5-0.3-5.9-0.8c-1.2-0.5-2.3-1.2-3.3-2.1v-6.3h7.5v2.8c0,0.4,0.2,0.7,0.5,0.9
		c0.3,0.2,0.7,0.3,1,0.3c0.6,0,1-0.2,1.3-0.6c0.3-0.4,0.4-1,0.4-1.8c0-1.4-0.9-2.4-2.8-3c-3.3-1-5.1-1.5-5.3-1.7
		C1,50.6,0,48.7,0,45.9c0-2.9,0.9-5.1,2.7-6.3c1.5-1,3.5-1.6,6.2-1.6c2.4,0,4.4,0.3,5.8,0.8c1.2,0.4,2.3,1.1,3.3,2v5.8h-7.1v-2.1
		c0-0.4-0.1-0.8-0.4-1.1c-0.2-0.3-0.6-0.5-1.1-0.5c-1.1,0-1.7,0.7-1.7,2.2c0,1.1,0.9,1.9,2.8,2.4c2.8,0.8,4.6,1.4,5.3,1.9
		c1.9,1.2,2.9,3.3,2.9,6C18.8,61.2,15.7,63.9,9.6,63.9"/>
	<path fill="#385A2A" d="M35,57.7c0,0.4,0.1,0.7,0.4,0.9c0.2,0.3,0.5,0.4,0.8,0.4v4.1h-9.3v-4.1c0.3,0,0.6-0.2,0.8-0.4
		c0.1-0.1,0.2-0.2,0.2-0.3c0.1-0.2,0.2-0.4,0.2-0.6V44.8v-0.6c0-0.2,0-0.3-0.1-0.4c0,0-0.1-0.1-0.3-0.1h-0.3c-0.2,0-0.3,0-0.5,0.1
		c-0.2,0.1-0.3,0.2-0.4,0.3c-0.1,0.3-0.2,0.5-0.2,0.8v0.5v4.2h-5.1V38.8h20.7v10.9h-5.1v-4.2v-0.5c0-0.3-0.1-0.6-0.2-0.8
		c-0.1-0.1-0.2-0.2-0.4-0.3c-0.2-0.1-0.4-0.1-0.5-0.1h-0.2c-0.2,0-0.3,0-0.3,0.1C35,44,35,44.2,35,44.5v0.4V57.7z"/>
	<path fill="#385A2A" d="M62.6,55v2.8c0,0.3,0.1,0.6,0.2,0.9c0.1,0.2,0.3,0.4,0.5,0.5v4.1H55v-7c0-0.3,0-0.6-0.1-0.9
		c-0.1-0.3-0.3-0.5-0.5-0.8c-0.1-0.1-0.2-0.2-0.3-0.3c-0.2-0.1-0.4-0.2-0.6-0.2H53c-0.4,0-0.6,0-0.6,0.1c-0.1,0.1-0.1,0.3-0.1,0.4
		v0.8v2.5c0,0.4,0.1,0.6,0.2,0.9c0.2,0.2,0.3,0.4,0.5,0.5v4.1h-9v-4.1c0.2-0.1,0.3-0.2,0.4-0.4c0.1-0.2,0.2-0.3,0.3-0.5
		c0.1-0.2,0.1-0.3,0.1-0.5V45c0-0.3,0-0.6-0.1-0.7c0-0.2-0.1-0.3-0.3-0.6c-0.1-0.2-0.3-0.4-0.6-0.5v-4.3h12.8c1.6,0,3,0.6,4.2,1.9
		c1.2,1.2,1.8,2.7,1.8,4.3c0,1.4-0.1,2.6-0.5,3.4c-0.4,1.1-1.1,1.9-2.1,2.4c-0.1,0.1-0.2,0.2-0.2,0.4c0,0.2,0,0.3,0.1,0.3
		c0.9,0.5,1.5,1,1.7,1.3C62.3,53.3,62.6,54.1,62.6,55 M55.3,46.6c0-0.8-0.1-1.3-0.2-1.7c-0.2-0.7-0.6-1-1.1-1h-1.3
		c-0.2,0-0.3,0.1-0.4,0.2c-0.1,0.1-0.1,0.2-0.1,0.3v0.3v3.3c0,0.2,0,0.3,0,0.5c0,0.2,0.1,0.3,0.1,0.4c0.1,0.1,0.2,0.2,0.4,0.2h1.3
		c0.5,0,0.8-0.2,0.9-0.7C55.3,47.9,55.3,47.3,55.3,46.6"/>
	<path fill="#385A2A" d="M75.4,63.8c-3,0-5.3-0.7-6.9-2c-1.6-1.4-2.5-3.5-2.5-6.4V45.1c0-2.5,0.9-4.4,2.9-5.7
		c1.6-1.1,3.7-1.6,6.3-1.6c2,0,3.8,0.4,5.4,1.3c2.4,1.3,3.6,3.3,3.6,6.1v10.1c0,3.4-1,5.8-3,7.1C79.9,63.4,78,63.8,75.4,63.8
		 M76.7,44.6c0-0.4-0.1-0.8-0.4-1.1c-0.3-0.3-0.6-0.4-1.1-0.4c-0.4,0-0.8,0.2-1,0.4c-0.3,0.3-0.4,0.7-0.4,1.1v12.4
		c0,0.4,0.2,0.7,0.4,1c0.3,0.3,0.7,0.4,1.1,0.4c0.4,0,0.7-0.1,1-0.4c0.3-0.3,0.4-0.6,0.4-1V44.6z"/>
	<path fill="#385A2A" d="M100.2,48.7c0,0.1,0.1,0.1,0.3,0.1l0.2-0.1v-4.4c0-0.2,0-0.3,0-0.4c0-0.1-0.1-0.3-0.3-0.6l-0.4-0.4v-4.1h8
		v4.1c-0.2,0.1-0.4,0.2-0.6,0.4c-0.2,0.3-0.4,0.6-0.4,0.9v18.9h-7.9l-4.1-9.4l-0.2-0.2l-0.2,0.2v4.1c0,0.4,0.1,0.7,0.2,0.9
		c0.1,0.2,0.3,0.3,0.6,0.4v4.1l-7.7,0v-4c0.2-0.1,0.4-0.2,0.7-0.5c0.2-0.3,0.3-0.6,0.3-0.9V45c0-0.2,0-0.4,0-0.5
		c0-0.2,0-0.4-0.1-0.6c-0.2-0.5-0.5-1-1-1.3v-3.7h8.8L100.2,48.7z"/>
	<path fill="#385A2A" d="M120.8,44.6c0-0.4-0.1-0.8-0.4-1.1c-0.3-0.3-0.7-0.4-1.1-0.4c-0.4,0-0.8,0.2-1,0.4
		c-0.3,0.3-0.4,0.7-0.4,1.1v12.5c0,0.4,0.1,0.7,0.4,1c0.3,0.3,0.7,0.4,1.1,0.4c0.4,0,0.8-0.1,1.1-0.4c0.3-0.3,0.4-0.6,0.4-1.1v-2.3
		c0-0.3,0-0.5,0-0.5c-0.1-0.1-0.3-0.2-0.6-0.2h-0.6v-4.7h8.2v11.5c-1.2,1.1-2.5,1.9-3.8,2.3c-1.2,0.3-2.7,0.5-4.7,0.5
		c-2.9,0-5.1-0.7-6.6-2.1c-1.5-1.4-2.3-3.5-2.3-6.2V45.1c0-2.5,0.9-4.4,2.8-5.6c1.5-1,3.5-1.5,6.1-1.5c1.8,0,3.3,0.2,4.5,0.6
		c1.6,0.5,2.9,1.3,4.1,2.4v6h-7.1V44.6z"/>
</g>
</svg>
