<?xml version="1.0" encoding="UTF-8"?>
<svg id="Capa_1" data-name="Capa 1" xmlns="http://www.w3.org/2000/svg" xmlns:xlink="http://www.w3.org/1999/xlink" viewBox="0 0 214 317">
  <defs>
    <style>
      .cls-1 {
        fill: url(#linear-gradient-2);
      }

      .cls-2 {
        fill: #008ac9;
        filter: url(#drop-shadow-3);
      }

      .cls-3, .cls-4 {
        opacity: .3;
      }

      .cls-5 {
        fill: #052e38;
      }

      .cls-6 {
        fill: #fff;
      }

      .cls-7 {
        fill: url(#linear-gradient-3);
      }

      .cls-4 {
        fill: url(#linear-gradient-4);
      }

      .cls-8 {
        filter: url(#drop-shadow-26);
      }

      .cls-9 {
        fill: url(#linear-gradient);
      }
    </style>
    <filter id="drop-shadow-3" x=".499014949396951" y="0" width="215" height="317" filterUnits="userSpaceOnUse">
      <feOffset dx="3" dy="3"/>
      <feGaussianBlur result="blur" stdDeviation="4"/>
      <feFlood flood-color="#000" flood-opacity=".5"/>
      <feComposite in2="blur" operator="in"/>
      <feComposite in="SourceGraphic"/>
    </filter>
    <filter id="drop-shadow-26" x="61.499014949396951" y="41" width="83" height="116" filterUnits="userSpaceOnUse">
      <feOffset dx="2" dy="2"/>
      <feGaussianBlur result="blur-2" stdDeviation="2"/>
      <feFlood flood-color="#000" flood-opacity=".7"/>
      <feComposite in2="blur-2" operator="in"/>
      <feComposite in="SourceGraphic"/>
    </filter>
    <linearGradient id="linear-gradient" x1="66.472964775453875" y1="97.06638437703441" x2="136.2253643294207" y2="97.06638437703441" gradientUnits="userSpaceOnUse">
      <stop offset="0" stop-color="#bec3c4"/>
      <stop offset=".21" stop-color="#cbcfcf"/>
      <stop offset=".41" stop-color="#f1f2f2"/>
      <stop offset=".55" stop-color="#e5e6e7"/>
      <stop offset=".71" stop-color="#c6c9cb"/>
      <stop offset="1" stop-color="#eff0f1"/>
    </linearGradient>
    <linearGradient id="linear-gradient-2" x1="66.472964775453875" y1="97.06638437703441" x2="136.2253643294207" y2="97.06638437703441" gradientUnits="userSpaceOnUse">
      <stop offset="0" stop-color="#ae8e5c"/>
      <stop offset=".28" stop-color="#eac894"/>
      <stop offset=".55" stop-color="#b99262"/>
      <stop offset=".77" stop-color="#c69d69"/>
      <stop offset="1" stop-color="#ebbb7c"/>
    </linearGradient>
    <linearGradient id="linear-gradient-3" x1="10" y1="155.20507812703363" x2="199.605773925783069" y2="155.20507812703363" xlink:href="#linear-gradient"/>
    <linearGradient id="linear-gradient-4" x1="10" y1="155.20507812703363" x2="199.605773925783069" y2="155.20507812703363" xlink:href="#linear-gradient-2"/>
  </defs>
  <path class="cls-2" d="M10,215.107357412125566l.000000000816726-119.804576382754021c.000000000325599-47.663709830514563,38.639071199233513-86.302781029240577,86.302781029749895-86.302781029338803l17.000172606192791-.000000000032742c47.663709825828846-.000000000101863,86.302781021302508,38.639071194273129,86.302781022564886,86.302781020098337l.000000003175955,119.804576397764322c.000000001262379,47.663709827047569-38.639071196474106,86.30278102270313-86.302781023525313,86.302781018872338l-17.00017262325855-.00000000136788c-47.663709824319085-.000000003830792-86.30278101604199-38.639071198922466-86.302781015716391-86.30278102324155Z"/>
  <g class="cls-8">
    <path class="cls-9" d="M66.472964775453875,145.01231115396331v-21.335734177740051h29.814680240808229c5.198447212285828,0,8.730700807915127-.410302580341522,10.600604370782094-1.230907741021838,1.867981770919869-.821566056656593,2.803894448326901-2.325368253925262,2.803894448326901-4.514289279726654v-2.598262710169365c0-4.466244481091053-3.511113884233055-6.838696637676549-10.531419860748429-7.11159109392247l-24.345260364225396-1.094460512901605v-20.516089913030555l23.113391727230919-1.50380219726776c3.737885333786835-.181609338839735,6.44953376873309-.729320043276857,8.138788888732961-1.641210321365179,1.685411536109314-.910929382115683,2.530039096105611-2.370530364641127,2.530039096105611-4.376881155630144v-1.230907741022747c0-2.735670834265875-.935912677403394-4.626714108530905-2.803894448323263-5.676012510714827-1.869903562866966-1.047376610238643-5.220547819659259-1.572986707303244-10.051932770373242-1.572986707303244h-27.901536359171587v-21.335734177740051c7.294161328733026-1.276069851740431,14.039651057060837-2.257144639862418,20.241273664840264-2.940341676449862,6.19970081583233-.684157932559174,12.355200416925072-.979152996176708,18.464577011323854-.8897896707158,9.026656767506211.184492026756743,16.001800633304811,2.393591867984469,20.926392493369349,6.634025795492562,4.923630964098265,4.239473031533635,7.38544644614376,10.646727377469688,7.38544644614376,19.215997661972324v6.838696637676549c0,4.83330674266108-.91285117406369,8.799885317949702-2.736631730236695,11.898774829893227-1.823780556180282,3.100811303890623-4.741060729284072,5.381017447097292-8.752801415288559,6.838696637677458,4.192389128871582,1.367354969145708,7.386407342113671,4.012701581978035,9.573406575967965,7.932196254603696,2.188921025801392,3.921416464572758,3.283381538702088,8.708600200544424,3.283381538702088,14.360590311941451v3.966578575288622c0,8.206051606823166-2.599223606142914,14.521059939379484-7.795749026481644,18.943103205727311-5.197486316312279,4.423004162318648-12.446485534328531,6.633064899519013-21.746997654052393,6.633064899519013-14.497998436036141,0-27.900575463198038-1.230907741022747-40.209652873432788-3.692723223070061Z"/>
  </g>
  <g class="cls-3">
    <path class="cls-1" d="M66.472964775453875,145.01231115396331v-21.335734177740051h29.814680240808229c5.198447212285828,0,8.730700807915127-.410302580341522,10.600604370782094-1.230907741021838,1.867981770919869-.821566056656593,2.803894448326901-2.325368253925262,2.803894448326901-4.514289279726654v-2.598262710169365c0-4.466244481091053-3.511113884233055-6.838696637676549-10.531419860748429-7.11159109392247l-24.345260364225396-1.094460512901605v-20.516089913030555l23.113391727230919-1.50380219726776c3.737885333786835-.181609338839735,6.44953376873309-.729320043276857,8.138788888732961-1.641210321365179,1.685411536109314-.910929382115683,2.530039096105611-2.370530364641127,2.530039096105611-4.376881155630144v-1.230907741022747c0-2.735670834265875-.935912677403394-4.626714108530905-2.803894448323263-5.676012510714827-1.869903562866966-1.047376610238643-5.220547819659259-1.572986707303244-10.051932770373242-1.572986707303244h-27.901536359171587v-21.335734177740051c7.294161328733026-1.276069851740431,14.039651057060837-2.257144639862418,20.241273664840264-2.940341676449862,6.19970081583233-.684157932559174,12.355200416925072-.979152996176708,18.464577011323854-.8897896707158,9.026656767506211.184492026756743,16.001800633304811,2.393591867984469,20.926392493369349,6.634025795492562,4.923630964098265,4.239473031533635,7.38544644614376,10.646727377469688,7.38544644614376,19.215997661972324v6.838696637676549c0,4.83330674266108-.91285117406369,8.799885317949702-2.736631730236695,11.898774829893227-1.823780556180282,3.100811303890623-4.741060729284072,5.381017447097292-8.752801415288559,6.838696637677458,4.192389128871582,1.367354969145708,7.386407342113671,4.012701581978035,9.573406575967965,7.932196254603696,2.188921025801392,3.921416464572758,3.283381538702088,8.708600200544424,3.283381538702088,14.360590311941451v3.966578575288622c0,8.206051606823166-2.599223606142914,14.521059939379484-7.795749026481644,18.943103205727311-5.197486316312279,4.423004162318648-12.446485534328531,6.633064899519013-21.746997654052393,6.633064899519013-14.497998436036141,0-27.900575463198038-1.230907741022747-40.209652873432788-3.692723223070061Z"/>
  </g>
  <path class="cls-7" d="M113.303039550783069,9.00000000203363h-17.00018310546875C48.63909912109375,9.00000000203363,10,47.63909912312738,10,95.30273437703363v119.80462646484375c0,47.6636962890625,38.63909912109375,86.30279541015625,86.302856445314319,86.30279541015625h17.00018310546875c47.66363525390625,0,86.302734375-38.63909912109375,86.302734375-86.30279541015625v-119.80462646484375c0-47.66363525390625-38.63909912109375-86.302734375-86.302734375-86.302734375ZM96.302856445314319,25.00000000203363h17.00018310546875c38.76507568359375,0,70.302734375,31.53765869140625,70.302734375,70.302734375v68.8433837890625H26v-68.8433837890625c0-38.76507568359375,31.537719726564319-70.302734375,70.302856445314319-70.302734375ZM113.303039550783069,285.41015625203363h-17.00018310546875c-34.710388183595569,0-63.607055664064319-25.291748046875-69.2763671875-58.41015625h155.55279541015625c-5.6693115234375,33.118408203125-34.56591796875,58.41015625-69.2762451171875,58.41015625Z"/>
  <path class="cls-4" d="M113.303039550783069,9.00000000203363h-17.00018310546875C48.63909912109375,9.00000000203363,10,47.63909912312738,10,95.30273437703363v119.80462646484375c0,47.6636962890625,38.63909912109375,86.30279541015625,86.302856445314319,86.30279541015625h17.00018310546875c47.66363525390625,0,86.302734375-38.63909912109375,86.302734375-86.30279541015625v-119.80462646484375c0-47.66363525390625-38.63909912109375-86.302734375-86.302734375-86.302734375ZM96.302856445314319,25.00000000203363h17.00018310546875c38.76507568359375,0,70.302734375,31.53765869140625,70.302734375,70.302734375v68.8433837890625H26v-68.8433837890625c0-38.76507568359375,31.537719726564319-70.302734375,70.302856445314319-70.302734375ZM113.303039550783069,285.41015625203363h-17.00018310546875c-34.710388183595569,0-63.607055664064319-25.291748046875-69.2763671875-58.41015625h155.55279541015625c-5.6693115234375,33.118408203125-34.56591796875,58.41015625-69.2762451171875,58.41015625Z"/>
  <g>
    <path class="cls-5" d="M37.83935546875,204.9541015625l-10.10498046875-25.00390625h9.447265625l5.40478515625,15.6982421875,5.4052734375-15.6982421875h9.070790674821183l-10.104970362321183,25.00390625v9.9169921875h-9.1181640625v-9.9169921875Z"/>
    <path class="cls-5" d="M59.8818359375,206.833984375v-18.236328125c0-3.1015625.853515625-5.318359375,2.5615234375-6.650390625,1.70751953125-1.3310546875,3.751953125-1.9970703125,6.13330078125-1.9970703125,5.64013671875,0,10.77880859375.2353515625,15.416015625001819.705078125v7.7080078125h-12.595703125001819c-1.59814453125,0-2.39697265625.689453125-2.39697265625,2.0673828125v2.9140625l12.643066406251819.470703125v7.2373046875l-12.643066406251819.470703125v2.6318359375c0,.8154296875.1796875,1.42578125.54052734375,1.8330078125.35986328125.4072265625.85302734375.6103515625,1.48046875.6103515625h12.971679687501819v7.7080078125c-1.94287109375.2822265625-4.284667968751819.494140625-7.026367187501819.634765625-2.7421875.1416015625-5.3662109375.2119140625-7.87255859375.2119140625-6.1416015625,0-9.2119140625-2.7734375-9.2119140625-8.3193359375Z"/>
    <path class="cls-5" d="M97.669433593751819,179.9501953125h11.37353515625l10.33984375,34.9208984375h-9.447265625l-1.4091796875-5.5458984375h-10.48095703125l-1.36328125,5.5458984375h-9.35302734375l10.34033203125-34.9208984375ZM106.411132812501819,201.1474609375l-3.14892578125-13.4423828125-3.10205078125,13.4423828125h6.2509765625Z"/>
    <path class="cls-5" d="M123.613281250001819,179.9501953125h14.8984375c3.3203125,0,5.90625.8857421875,7.7548828125,2.6552734375,1.8486328125,1.7705078125,2.7734375,4.8017578125,2.7734375,9.0947265625,0,2.6953125-.416015625,4.7548828125-1.2451171875,6.1806640625-.8310546875,1.42578125-1.998046875,2.5771484375-3.501953125,3.4541015625l6.0625,13.5361328125h-9.2587890625l-4.8876953125-12.0322265625h-3.478515625v12.0322265625h-9.1171875v-34.9208984375ZM136.867187500001819,195.6015625c1.033203125,0,1.80078125-.3056640625,2.302734375-.9169921875.5009765625-.611328125.751953125-1.58984375.751953125-2.9375,0-1.3466796875-.2431640625-2.287109375-.728515625-2.8203125-.486328125-.5322265625-1.26171875-.798828125-2.326171875-.798828125h-4.13671875v7.4736328125h4.13671875Z"/>
    <path class="cls-5" d="M154.820312500001819,213.7900390625v-7.23828125c3.1328125.2822265625,6.720703125.4228515625,10.763671875.4228515625,1.59765625,0,2.7724609375-.1796875,3.5244140625-.5400390625.751953125-.359375,1.1279296875-.978515625,1.1279296875-1.8564453125v-.564453125c0-.6572265625-.234375-1.166015625-.705078125-1.52734375-.4697265625-.359375-1.0498046875-.5400390625-1.73828125-.5400390625h-2.4912109375c-3.7294921875,0-6.509765625-.822265625-8.3427734375-2.4677734375-1.8330078125-1.64453125-2.75-4.30078125-2.75-7.966796875v-1.55078125c0-3.4150390625,1.0185546875-5.984375,3.0556640625-7.7080078125,2.0361328125-1.72265625,5.0283203125-2.5849609375,8.9775390625-2.5849609375,3.445299548424373,0,7.080078125.455078125,10.9033203125,1.36328125v7.23828125c-3.5087890625-.2822265625-6.7685546875-.423828125-9.7763671875-.423828125-1.50390625,0-2.630859375.1806640625-3.3837890625.541015625-.751953125.3603515625-1.1279296875,1.0419921875-1.1279296875,2.0439453125v.470703125c0,1.59765625,1.017578125,2.396484375,3.0546875,2.396484375h3.1025390625c3.1650390625,0,5.6005859375.8779296875,7.30859375,2.6318359375,1.70703125,1.755859375,2.5615234375,4.0419921875,2.5615234375,6.8623046875v1.55078125c0,2.8837890625-.501953125,5.1162109375-1.50390625,6.6982421875-1.00390625,1.58203125-2.4208984375,2.6630859375-4.25390625,3.2421875-1.8330078125.580078125-4.19140625.8701171875-7.0732421875.8701171875-4.0107421875,0-7.7548828125-.4541015625-11.2333984375-1.36328125Z"/>
  </g>
  <g>
    <path class="cls-6" d="M43.18603515625,238.923828125h3.3662109375l2.61767578125,11.484375,3.05810546875-11.484375h2.9921875l3.03564453125,11.484375,2.6181640625-11.484375h3.3662109375l-3.89404296875,16.2802734375h-3.322265625l-3.2998046875-11.484375-3.322265625,11.484375h-3.32177734375l-3.89404296875-16.2802734375Z"/>
    <path class="cls-6" d="M69.5419921875,238.923828125h4.11376953125l5.10400390625,16.2802734375h-3.3876953125l-1.0341796875-3.41015625h-5.5439453125l-1.01220703125,3.41015625h-3.34375l5.10400390625-16.2802734375ZM73.56787109375,248.8681640625l-2.001953125-7.150390625-2.001953125,7.150390625h4.00390625Z"/>
    <path class="cls-6" d="M80.762207031251819,238.923828125h6.73193359375c1.43701171875,0,2.5703125.3857421875,3.39892578125,1.1552734375s1.2431640625,2.123046875,1.2431640625,4.05859375c0,1.3642578125-.2314453125,2.3759765625-.693359375,3.0361328125s-1.0888671875,1.1591796875-1.880859375,1.49609375l3.0361328125,6.5341796875h-3.322265625l-2.61767578125-6.0283203125c-.7041015625,0-1.583984375-.013671875-2.64013671875-.0439453125v6.072265625h-3.255859375v-16.2802734375ZM86.921875000001819,246.5576171875c.63037109375,0,1.11474609375-.1787109375,1.4521484375-.5380859375s.505859375-.986328125.505859375-1.8818359375c0-.865234375-.16845703125-1.462890625-.505859375-1.79296875s-.82177734375-.494140625-1.4521484375-.494140625h-2.90380859375v4.70703125h2.90380859375Z"/>
    <path class="cls-6" d="M94.776367187501819,238.923828125h6.73193359375c1.43701171875,0,2.5703125.3857421875,3.39892578125,1.1552734375s1.2431640625,2.123046875,1.2431640625,4.05859375c0,1.3642578125-.2314453125,2.3759765625-.693359375,3.0361328125s-1.0888671875,1.1591796875-1.880859375,1.49609375l3.0361328125,6.5341796875h-3.322265625l-2.61767578125-6.0283203125c-.7041015625,0-1.583984375-.013671875-2.64013671875-.0439453125v6.072265625h-3.255859375v-16.2802734375ZM100.936035156251819,246.5576171875c.63037109375,0,1.11474609375-.1787109375,1.4521484375-.5380859375s.505859375-.986328125.505859375-1.8818359375c0-.865234375-.16845703125-1.462890625-.505859375-1.79296875s-.82177734375-.494140625-1.4521484375-.494140625h-2.90380859375v4.70703125h2.90380859375Z"/>
    <path class="cls-6" d="M112.860351562501819,238.923828125h4.1142578125l5.103515625,16.2802734375h-3.3876953125l-1.0341796875-3.41015625h-5.5439453125l-1.0126953125,3.41015625h-3.34326171875l5.10400390625-16.2802734375ZM116.886718750001819,248.8681640625l-2.001953125-7.150390625-2.001953125,7.150390625h4.00390625Z"/>
    <path class="cls-6" d="M124.189453125001819,238.923828125h2.619140625l6.8193359375,10.736328125v-10.736328125h3.255859375v16.2802734375h-2.6181640625l-6.7978515625-10.736328125v10.736328125h-3.2783203125v-16.2802734375Z"/>
    <path class="cls-6" d="M143.197265625001819,241.8505859375h-4.46484375v-2.9267578125h12.208984375v2.9267578125h-4.4873046875v13.353515625h-3.2568359375v-13.353515625Z"/>
    <path class="cls-6" d="M156.792968750001819,250.2763671875l-4.9052734375-11.3525390625h3.3876953125l3.212890625,8.0302734375,3.189453125-8.0302734375h3.255859375l-4.8837890625,11.3525390625v4.927734375h-3.2568359375v-4.927734375Z"/>
  </g>
</svg>